<svg width="26.181" height="20.132" viewBox="0 0 26.181 20.132" xmlns="http://www.w3.org/2000/svg"><g id="svgGroup" stroke-linecap="round" fill-rule="evenodd" font-size="9pt" stroke="#000" stroke-width="0.25mm" fill="#000" style="stroke:#000;stroke-width:0.25mm;fill:#000"><path d="M 3.805 20.053 A 15.06 15.06 0 0 0 5.321 20.132 Q 7.296 20.132 8.782 19.667 A 6.568 6.568 0 0 0 10.907 18.578 A 4.938 4.938 0 0 0 12.649 15.925 A 7.095 7.095 0 0 0 12.881 14.056 Q 12.881 12.012 11.873 10.682 Q 10.865 9.352 8.205 8.568 A 22.156 22.156 0 0 1 7.344 8.291 Q 5.71 7.724 5.013 7.14 A 3.677 3.677 0 0 1 4.976 7.109 Q 4.145 6.393 4.145 5.516 A 2.942 2.942 0 0 1 4.148 5.385 Q 4.187 4.507 4.761 4.116 Q 5.377 3.696 6.581 3.696 Q 7.365 3.696 8.177 3.85 Q 8.989 4.004 9.689 4.004 Q 10.287 4.004 10.704 3.849 A 1.477 1.477 0 0 0 11.243 3.514 A 1.607 1.607 0 0 0 11.661 2.787 A 2.181 2.181 0 0 0 11.733 2.212 A 2.196 2.196 0 0 0 11.732 2.161 Q 11.714 1.372 11.125 0.923 A 2.254 2.254 0 0 0 10.557 0.616 A 6.649 6.649 0 0 0 9.804 0.357 Q 9.146 0.172 8.365 0.083 A 13.774 13.774 0 0 0 6.805 0 A 9.581 9.581 0 0 0 5.526 0.083 A 7.506 7.506 0 0 0 3.361 0.7 A 6.525 6.525 0 0 0 3.314 0.722 A 5.462 5.462 0 0 0 0.995 2.73 A 5.207 5.207 0 0 0 0.299 4.434 A 7.071 7.071 0 0 0 0.141 5.964 A 6.322 6.322 0 0 0 0.176 6.635 A 4.618 4.618 0 0 0 1.527 9.52 Q 2.913 10.892 6.021 11.816 Q 7.255 12.18 7.897 12.574 A 2.304 2.304 0 0 1 8.303 12.88 A 1.919 1.919 0 0 1 8.677 13.382 A 1.886 1.886 0 0 1 8.877 14.252 Q 8.877 14.943 8.685 15.4 A 1.368 1.368 0 0 1 8.121 16.072 Q 7.365 16.52 5.629 16.52 A 6.794 6.794 0 0 1 5.36 16.515 Q 5.008 16.501 4.609 16.451 A 12.896 12.896 0 0 1 3.809 16.324 Q 3.161 16.202 2.634 16.156 A 6.816 6.816 0 0 0 2.045 16.128 Q 1.446 16.128 1.03 16.283 A 1.477 1.477 0 0 0 0.491 16.618 A 1.607 1.607 0 0 0 0.073 17.346 A 2.181 2.181 0 0 0 0.001 17.92 A 1.533 1.533 0 0 0 0.608 19.197 A 2.368 2.368 0 0 0 1.177 19.516 Q 1.655 19.7 2.325 19.835 A 13.377 13.377 0 0 0 3.081 19.964 A 17.79 17.79 0 0 0 3.805 20.053 Z M 18.831 20.057 A 17.999 17.999 0 0 0 20.553 20.132 A 10.512 10.512 0 0 0 21.36 20.102 Q 22.216 20.036 22.934 19.825 A 5.081 5.081 0 0 0 24.683 18.942 A 3.855 3.855 0 0 0 25.884 17.385 A 4.139 4.139 0 0 0 26.181 15.792 A 4.922 4.922 0 0 0 26.103 14.899 A 3.453 3.453 0 0 0 25.201 13.09 Q 24.527 12.387 23.337 11.877 A 10.871 10.871 0 0 0 22.149 11.452 Q 20.637 11.004 20.105 10.626 A 1.609 1.609 0 0 1 19.911 10.465 A 1.053 1.053 0 0 1 19.573 9.688 A 1.304 1.304 0 0 1 19.574 9.645 Q 19.598 8.918 20.443 8.772 A 2.81 2.81 0 0 1 20.917 8.736 A 5.296 5.296 0 0 1 21.05 8.738 A 4.706 4.706 0 0 1 21.827 8.82 A 6.167 6.167 0 0 1 21.881 8.831 A 5.605 5.605 0 0 1 22.653 9.044 A 35.057 35.057 0 0 0 22.97 9.126 Q 23.122 9.164 23.258 9.197 A 17.685 17.685 0 0 0 23.563 9.268 Q 23.787 9.318 23.977 9.338 A 2.304 2.304 0 0 0 24.221 9.352 A 1.826 1.826 0 0 0 24.434 9.34 A 1.288 1.288 0 0 0 25.285 8.904 A 1.526 1.526 0 0 0 25.602 8.329 A 1.897 1.897 0 0 0 25.677 7.784 A 1.596 1.596 0 0 0 25.084 6.515 A 2.635 2.635 0 0 0 24.529 6.16 Q 23.74 5.775 22.54 5.655 A 11.81 11.81 0 0 0 21.365 5.6 A 11.459 11.459 0 0 0 20.408 5.639 Q 19.533 5.712 18.801 5.926 A 5.348 5.348 0 0 0 17.137 6.72 A 3.551 3.551 0 0 0 15.792 8.583 A 4.672 4.672 0 0 0 15.597 9.968 Q 15.597 11.48 16.451 12.502 A 4.17 4.17 0 0 0 17.337 13.299 A 4.741 4.741 0 0 0 18.705 13.916 Q 20.245 14.364 20.973 14.616 A 5.353 5.353 0 0 1 21.281 14.733 Q 21.753 14.929 21.925 15.134 A 0.824 0.824 0 0 1 22.031 15.295 Q 22.096 15.424 22.125 15.586 A 1.633 1.633 0 0 1 22.149 15.876 A 1.355 1.355 0 0 1 22.126 16.133 A 0.83 0.83 0 0 1 21.729 16.716 Q 21.309 16.968 20.301 16.968 A 5.119 5.119 0 0 1 20.134 16.965 A 5.654 5.654 0 0 1 19.209 16.856 A 14.654 14.654 0 0 1 19.184 16.851 Q 18.642 16.742 18.313 16.632 A 76.013 76.013 0 0 0 18.043 16.546 Q 17.48 16.367 17.263 16.31 Q 16.997 16.24 16.717 16.24 A 1.808 1.808 0 0 0 16.522 16.25 A 1.303 1.303 0 0 0 15.681 16.66 A 1.317 1.317 0 0 0 15.585 16.776 Q 15.409 17.014 15.337 17.334 A 2.182 2.182 0 0 0 15.289 17.808 Q 15.289 19.714 18.831 20.057 Z" vector-effect="non-scaling-stroke"/></g></svg>